<svg xmlns="http://www.w3.org/2000/svg" xmlns:xlink="http://www.w3.org/1999/xlink" width="1009.544" height="839.642" viewBox="0 0 1009.544 839.642">
  <defs>
    <style>
      .cls-1, .cls-17, .cls-2 {
        fill: #ffae36;
      }

      .cls-1, .cls-12, .cls-18, .cls-8 {
        opacity: 0.1;
      }

      .cls-3 {
        fill: #38d39f;
      }

      .cls-4 {
        fill: #444053;
      }

      .cls-5 {
        fill: #3a3768;
      }

      .cls-6 {
        fill: #df423e;
      }

      .cls-7 {
        fill: #e6e8ec;
      }

      .cls-8 {
        fill: #0d0d0d;
      }

      .cls-9 {
        fill: url(#linear-gradient);
      }

      .cls-10 {
        fill: #8e6f7f;
      }

      .cls-11 {
        fill: #5f5570;
      }

      .cls-13 {
        fill: #eaeaf2;
      }

      .cls-14 {
        fill: #bc8487;
      }

      .cls-15 {
        fill: #ffc4d0;
      }

      .cls-16 {
        isolation: isolate;
      }

      .cls-17 {
        stroke: #ffae36;
      }

      .cls-19 {
        fill: #e59622;
      }

      .cls-20 {
        fill: #a8a8a8;
      }

      .cls-21 {
        opacity: 0.2;
      }

      .cls-22, .cls-23 {
        fill: #fff;
      }

      .cls-22 {
        font-size: 19px;
        font-family: Hind-Medium, Hind;
        font-weight: 500;
        opacity: 0.9;
      }

      .cls-23 {
        font-size: 40px;
        font-family: Hind-Bold, Hind;
        font-weight: 700;
      }
    </style>
    <linearGradient id="linear-gradient" y1="0.5" x2="1" y2="0.5" gradientUnits="objectBoundingBox">
      <stop offset="0" stop-color="gray" stop-opacity="0.251"/>
      <stop offset="0.54" stop-color="gray" stop-opacity="0.122"/>
      <stop offset="1" stop-color="gray" stop-opacity="0.102"/>
    </linearGradient>
  </defs>
  <g id="bg" transform="translate(0.004 0.002)">
    <path id="Path_1" data-name="Path 1" class="cls-1" d="M681.78,141.58c-64.72-2.25-126.36-23.14-185.22-46S379.4,47.39,316.23,35.28c-40.63-7.79-87.1-8.89-119.83,12.89-31.51,21-41.69,57.15-47.16,90.73-4.12,25.26-6.54,51.85,4.74,75.49,7.84,16.42,21.74,30.22,31.36,45.95,33.47,54.72,9.81,122.2-26.45,175.63-17,25.07-36.75,49-49.88,75.66s-19.2,57.25-7.71,84.47c11.38,27,38.51,47.24,67.9,61.49,59.69,28.95,130,37.23,198.61,41.92,151.83,10.39,304.46,5.89,456.69,1.39,56.34-1.67,112.92-3.36,168.34-12.07,30.78-4.84,62.55-12.51,84.9-31.05,28.36-23.53,35.39-63.37,16.38-92.88-31.88-49.49-120-61.78-142.31-114.89-12.26-29.24.33-61.8,18.16-88.92,38.24-58.16,102.33-109.19,105.7-175.67,2.32-45.66-28.49-91.39-76.13-113-49.93-22.64-119.18-19.8-156,17.69C805.59,128.71,738.93,143.56,681.78,141.58Z" transform="translate(-95.23 -30.18)"/>
    <ellipse id="Ellipse_1" data-name="Ellipse 1" class="cls-1" cx="303.97" cy="41.12" rx="303.97" ry="41.12" transform="translate(179.52 739.87)"/>
    <path id="Path_2" data-name="Path 2" class="cls-2" d="M428.24,688.75s21-3.36,33.6,11.48c0,0-9.24,7.28-29.12-2.8Z" transform="translate(-95.23 -30.18)"/>
    <path id="Path_3" data-name="Path 3" class="cls-2" d="M426,688.42s-13.4,16.58-6.83,34.85c0,0,10.92-4.37,12.11-26.63Z" transform="translate(-95.23 -30.18)"/>
    <path id="Path_4" data-name="Path 4" class="cls-2" d="M414,661.31s8.4-15.4,42,6.16c0,0-4.48,10.36-19.32,9.52S417.87,669.43,414,661.31Z" transform="translate(-95.23 -30.18)"/>
    <path id="Path_5" data-name="Path 5" class="cls-2" d="M411.79,660.2s-17.43-2-19.12,37.9c0,0,11.05,2.3,18.9-10.33S416.17,668.08,411.79,660.2Z" transform="translate(-95.23 -30.18)"/>
    <path id="Path_6" data-name="Path 6" class="cls-2" d="M401.63,628.38s9.8-27.17,45.37-7.85c0,0-8.12,24.93-41.73,17.09Z" transform="translate(-95.23 -30.18)"/>
    <path id="Path_7" data-name="Path 7" class="cls-2" d="M390.71,587.77s18.48-27.44,51.25-2c0,0-11.48,25.76-48.45,11.76Z" transform="translate(-95.23 -30.18)"/>
    <path id="Path_8" data-name="Path 8" class="cls-2" d="M386.79,549.13s21.56-25.2,54,0c0,0-20.45,22.12-54,6.44Z" transform="translate(-95.23 -30.18)"/>
    <path id="Path_9" data-name="Path 9" class="cls-2" d="M383.43,511.61s21.84-26.33,52.93-1.4c0,0-24.65,23.24-52.93,7.56Z" transform="translate(-95.23 -30.18)"/>
    <path id="Path_10" data-name="Path 10" class="cls-2" d="M385.39,478.28s23-33.88,52.09-10.92c0,0-24.65,29.13-52.09,17.36Z" transform="translate(-95.23 -30.18)"/>
    <path id="Path_11" data-name="Path 11" class="cls-2" d="M390.71,439.36s24.36-33.6,52.65-7.84c0,0-28.85,29.12-52.65,14Z" transform="translate(-95.23 -30.18)"/>
    <path id="Path_12" data-name="Path 12" class="cls-2" d="M398.84,404.57s28.83-31.57,54-19c0,0-30.06,33.53-55.26,27.37Z" transform="translate(-95.23 -30.18)"/>
    <path id="Path_13" data-name="Path 13" class="cls-2" d="M408.91,371.6s33.33-38.65,52.65-25.77c0,0-24.52,30-55,33.05Z" transform="translate(-95.23 -30.18)"/>
    <path id="Path_14" data-name="Path 14" class="cls-2" d="M423.46,333.34s29.14-31.58,50.42-23.74c0,0-24.92,32.77-54.33,33.61Z" transform="translate(-95.23 -30.18)"/>
    <path id="Path_15" data-name="Path 15" class="cls-2" d="M436.64,297.56s32.2-30.24,46.2-24.92c0,0-23.24,33.6-47.6,31.64Z" transform="translate(-95.23 -30.18)"/>
    <path id="Path_16" data-name="Path 16" class="cls-3" d="M449.52,264.52s27.72-36.12,42.84-33.32c0,0-16.8,32.2-42.84,37Z" transform="translate(-95.23 -30.18)"/>
    <path id="Path_17" data-name="Path 17" class="cls-3" d="M463.49,220s24.51-27.7,37.74-27.63c0,0-19.34,37-38.74,36.66Z" transform="translate(-95.23 -30.18)"/>
    <path id="Path_18" data-name="Path 18" class="cls-2" d="M471.78,190.31l23.66-57.68s1.19,52.14-26.68,68.38Z" transform="translate(-95.23 -30.18)"/>
    <path id="Path_19" data-name="Path 19" class="cls-2" d="M481.38,126.7s3.92-48.16,1.4-52.08c0,0,16.93,40-1.56,73.36Z" transform="translate(-95.23 -30.18)"/>
    <path id="Path_20" data-name="Path 20" class="cls-2" d="M400.72,627.73s-24.55-15.21-40.43,22c0,0,21.84,14.5,43.31-12.51Z" transform="translate(-95.23 -30.18)"/>
    <path id="Path_21" data-name="Path 21" class="cls-2" d="M389.93,586.22s-30.1-13.73-44.71,25.12c0,0,23.26,16,47.45-15.3Z" transform="translate(-95.23 -30.18)"/>
    <path id="Path_22" data-name="Path 22" class="cls-2" d="M385.39,551.44s-21.56-25.2-54,0c0,0,20.44,22.12,54,6.44Z" transform="translate(-95.23 -30.18)"/>
    <path id="Path_23" data-name="Path 23" class="cls-2" d="M382.7,511.61s-21.85-26.33-52.93-1.4c0,0,24.64,23.24,52.93,7.56Z" transform="translate(-95.23 -30.18)"/>
    <path id="Path_24" data-name="Path 24" class="cls-2" d="M385.39,479.24s-15.32-37.95-48.62-21.63c0,0,18,33.66,47.27,27.93Z" transform="translate(-95.23 -30.18)"/>
    <path id="Path_25" data-name="Path 25" class="cls-2" d="M392.64,439.17s-15.22-38.61-49-20.71c0,0,20.68,35.39,47.5,26.68Z" transform="translate(-95.23 -30.18)"/>
    <path id="Path_26" data-name="Path 26" class="cls-2" d="M402.08,404.77s-6-42.34-33.95-46.13c0,0,5.93,44.64,30.22,53.75Z" transform="translate(-95.23 -30.18)"/>
    <path id="Path_27" data-name="Path 27" class="cls-2" d="M409.63,371.67s-2.35-51-25.5-52.77c0,0,.78,38.7,22.89,60Z" transform="translate(-95.23 -30.18)"/>
    <path id="Path_28" data-name="Path 28" class="cls-2" d="M425.87,331.88s-6.91-42.4-29-47.59c0,0,2.74,41.07,26.81,58Z" transform="translate(-95.23 -30.18)"/>
    <path id="Path_29" data-name="Path 29" class="cls-2" d="M439.26,297.87s-.24-44.18-13.74-50.67c0,0-8.37,40,9.83,56.31Z" transform="translate(-95.23 -30.18)"/>
    <path id="Path_30" data-name="Path 30" class="cls-2" d="M450.55,264s-1.9-45.5-15.87-51.91c0,0-4.79,36,13.77,54.88Z" transform="translate(-95.23 -30.18)"/>
    <path id="Path_31" data-name="Path 31" class="cls-2" d="M465.45,223.6s-.09-37-10.07-45.68c0,0-9.92,40.54,4.86,53.12Z" transform="translate(-95.23 -30.18)"/>
    <path id="Path_32" data-name="Path 32" class="cls-2" d="M470.6,188.49l-9.7-61.59s-13.2,50.47,10.16,72.7Z" transform="translate(-95.23 -30.18)"/>
    <path id="Path_33" data-name="Path 33" class="cls-2" d="M472.5,127.28s-24.93-41.39-24.41-46c0,0,2.64,43.4,34,65Z" transform="translate(-95.23 -30.18)"/>
    <path id="Path_34" data-name="Path 34" class="cls-2" d="M475.42,115.06S451.9,56.25,441.26,51.49c0,0,33.6,17.08,36.12,61.89Z" transform="translate(-95.23 -30.18)"/>
    <path id="Path_35" data-name="Path 35" class="cls-4" d="M462.36,229.35l-1.61-.49c19.85-64.73,24.81-106,13.95-116.34l1.16-1.22C487.36,122.21,482.7,163,462.36,229.35Z" transform="translate(-95.23 -30.18)"/>
    <path id="Path_36" data-name="Path 36" class="cls-4" d="M407.7,380.87l-2.37-.84c2.1-5.93,4.37-11.95,6.75-17.89,20.72-51.64,38.36-99.67,49.67-136.55l2.07-1c-11.33,36.95-28.65,86.83-49.4,138.53C412.05,369,409.79,375,407.7,380.87Z" transform="translate(-95.23 -30.18)"/>
    <path id="Path_37" data-name="Path 37" class="cls-4" d="M457.79,737.2c-.32-.36-32.5-36.58-54.92-98.44A364.429,364.429,0,0,1,381.17,526c-1.54-48.13,8.56-101.87,25.86-150.68l1.88,2.2c-38.83,109.56-23.4,203.45-2.94,260,22.2,61.29,54,97.13,54.32,97.48Z" transform="translate(-95.23 -30.18)"/>
    <rect id="Rectangle_1" data-name="Rectangle 1" class="cls-5" width="8.86" height="73.02" rx="2.29" transform="translate(642.8 289.82)"/>
    <rect id="Rectangle_2" data-name="Rectangle 2" class="cls-5" width="4.97" height="24.04" rx="2.29" transform="translate(348.37 232.61)"/>
    <rect id="Rectangle_3" data-name="Rectangle 3" class="cls-5" width="5.6" height="41.84" rx="2.29" transform="translate(348.19 276.63)"/>
    <rect id="Rectangle_4" data-name="Rectangle 4" class="cls-5" width="5.33" height="42.2" rx="2.29" transform="translate(348.28 333.11)"/>
    <rect id="Rectangle_5" data-name="Rectangle 5" class="cls-5" width="296.4" height="602.39" rx="38.99" transform="translate(351.18 153.17)"/>
    <path id="Path_38" data-name="Path 38" class="cls-6" d="M701,199H667v4.09a19.38,19.38,0,0,1-19.39,19.38H539.48a19.38,19.38,0,0,1-19.39-19.38V199H488.26a23.54,23.54,0,0,0-23.54,23.54V746.51a23.54,23.54,0,0,0,23.54,23.54H701a23.54,23.54,0,0,0,23.54-23.54V222.58A23.54,23.54,0,0,0,701,199Z" transform="translate(-95.23 -30.18)"/>
    <rect id="Rectangle_6" data-name="Rectangle 6" class="cls-7" width="41.39" height="8.4" rx="3.87" transform="translate(470.79 171.16)"/>
    <circle id="Ellipse_2" data-name="Ellipse 2" class="cls-7" cx="4.77" cy="4.77" r="4.77" transform="translate(518.44 170.59)"/>
    <path id="Path_39" data-name="Path 39" class="cls-2" d="M845.43,156.93s-84.2-5.08-74.28,53.92c0,0-2,10.43,7.48,15.16,0,0,.15-4.37,8.64-2.88a39.5,39.5,0,0,0,9.15.44A19.06,19.06,0,0,0,807.6,219h0s23.67-9.78,32.87-48.46c0,0,6.81-8.44,6.54-10.61L832.8,166s4.86,10.25,1,18.77c0,0-.46-18.4-3.19-18-.55.08-7.38,3.55-7.38,3.55s8.35,17.85,2.05,30.83c0,0,2.39-22-4.66-29.54l-10,5.84s9.76,18.44,3.14,33.49c0,0,1.7-23.08-5.25-32.07l-9.06,7.07s9.17,18.17,3.58,30.65c0,0-.73-26.86-5.54-28.89,0,0-7.93,7-9.14,9.86,0,0,6.28,13.2,2.38,20.16,0,0-2.39-17.9-4.35-18,0,0-7.9,11.86-8.72,20,0,0,.34-12.09,6.81-21.12,0,0-7.64,1.31-12.1,6.26,0,0,1.23-8.38,14.05-9.12,0,0,6.53-9,8.27-9.54,0,0-12.74-1.07-20.47,2.36,0,0,6.8-7.91,22.81-4.31l8.95-7.31s-16.78-2.29-23.9.24c0,0,8.19-7,26.31-1.9l9.74-5.82s-14.31-3.08-22.83-2c0,0,9-4.85,25.69.41l7-3.13s-10.48-2.06-13.55-2.39-3.23-1.17-3.23-1.17a36.35,36.35,0,0,1,19.69,2.19S845.68,157.86,845.43,156.93Z" transform="translate(-95.23 -30.18)"/>
    <path id="Path_40" data-name="Path 40" class="cls-2" d="M759.06,130.69s-38-2.29-33.56,24.37c0,0-.89,4.71,3.38,6.85,0,0,.07-2,3.91-1.31a17.508,17.508,0,0,0,4.13.2,8.56,8.56,0,0,0,5.05-2.08h0s10.7-4.42,14.86-21.9c0,0,3.07-3.81,2.95-4.79l-6.42,2.74s2.19,4.63.47,8.48c0,0-.21-8.31-1.44-8.12-.25,0-3.34,1.61-3.34,1.61s3.78,8.07.93,13.93c0,0,1.08-9.94-2.11-13.35L743.35,140s4.41,8.33,1.42,15.13c0,0,.77-10.43-2.37-14.49l-4.09,3.2s4.14,8.21,1.62,13.85c0,0-.34-12.14-2.51-13.06,0,0-3.58,3.16-4.13,4.46,0,0,2.84,6,1.08,9.11,0,0-1.08-8.09-2-8.13,0,0-3.57,5.36-3.94,9a19.519,19.519,0,0,1,3.08-9.54,10.76,10.76,0,0,0-5.47,2.83s.56-3.79,6.35-4.12c0,0,3-4.07,3.74-4.32,0,0-5.76-.48-9.25,1.07,0,0,3.07-3.57,10.3-1.95l4-3.3s-7.59-1-10.8.11c0,0,3.7-3.16,11.89-.86l4.4-2.63s-6.47-1.39-10.32-.89c0,0,4.07-2.19,11.61.18l3.15-1.41s-4.74-.93-6.13-1.08-1.46-.53-1.46-.53a16.39,16.39,0,0,1,8.9,1S759.18,131.11,759.06,130.69Z" transform="translate(-95.23 -30.18)"/>
    <rect id="Rectangle_7" data-name="Rectangle 7" class="cls-8" width="206.95" height="439.24" rx="12" transform="translate(395.91 226.18)"/>
    <path id="Path_41" data-name="Path 41" class="cls-9" d="M691.75,818.22s-4.88-11.36-7.06-16.6c-1.23-3-3.31-3.5-4.9-3.43l.09-1,.39-4.73.08-1c3.77-.79,7-1.41,7-1.41L685,668.73s-1-1.28-3.42-9c-1.2-3.85-7-8.58-12.42-12.35-.85-.59-1.68-1.15-2.5-1.69a62.416,62.416,0,0,1,6.21-4.58c3.08-1.79,4.1-12,4.1-12l-.51,1c.51-1,0-27.07,0-27.07l-1.8-27.06s-1.28-32.17-11.28-40.6S640.75,524,640.75,524l-7-1.8h0l-12.9-3.31a16.525,16.525,0,0,1-1-1.86c-.13-.25-.25-.51-.37-.77a30.2,30.2,0,0,0,12.75-24.65,29.732,29.732,0,0,0-.39-4.84,4.854,4.854,0,0,0-.17-.91,25.2,25.2,0,0,0,3-2.41,13.629,13.629,0,0,0,3.66-4.49h0a7.57,7.57,0,0,0,.34-1.05.592.592,0,0,1,.06-.31,4.01,4.01,0,0,0,.12-.8v-1.4a6.915,6.915,0,0,0-.1-1,.129.129,0,0,0,0-.06h0a17.212,17.212,0,0,0-.9-3.4c-1-2.58-2.3-5-2.77-7.75-.58-3.25.09-6.8-1.46-9.72a8.67,8.67,0,0,0-6.09-4.19,14.35,14.35,0,0,0-7.52.86,10.7,10.7,0,0,1-3.71,1,7.75,7.75,0,0,1-2.71-.66,40.194,40.194,0,0,1-8.4-4.51,40.215,40.215,0,0,0-6-3.92,8.12,8.12,0,0,0-6.92-.28c-3.7,1.88-4.4,7.12-7.84,9.43-2.37,1.6-5.46,1.44-8.32,1.54s-6.1.81-7.51,3.29c-1,1.72-.76,3.77-.57,5.78l.06.68a3,3,0,0,0,.06.73,18.369,18.369,0,0,1-1.13,7.56c-1.38,3.66-4,7.27-3.91,11h0a7.656,7.656,0,0,0,.23,1.76,8.451,8.451,0,0,0,.28.85h0a37.237,37.237,0,0,0,1.85,3.61l.09.16c.07.14.14.28.2.42s.18.38.25.57.08.19.11.28.13.37.18.56a5.36,5.36,0,0,1,.21,1.74,16.184,16.184,0,0,0-.19,2.29,1.68,1.68,0,0,0,1.34,1.63,2.231,2.231,0,0,0,1.16-.36,18.571,18.571,0,0,0,2.55-1.75,5.823,5.823,0,0,0,.06,1,30.26,30.26,0,0,0,9.09,18.83,5.108,5.108,0,0,1-.07,1,7.981,7.981,0,0,0-.07,1.09h0l-11.2,3.52s.06.2.18.54l-1.18.47h0c-5.81,2.35-12.28,5.27-15.9,7.92-1.6,1.16-3.06,2.11-4.37,2.9a25,25,0,0,0-10.36,12.55l-.15.38c-1,2.29-5.9,17.87-5.9,17.87s-3.59,8.68-4.11,14.3c0,0-5.9,18.63-4.36,30.89,0,0-4.62,17.62-2.82,20.42,0,0-1.84,7.58,6.24,15.21-.59.36-1.23.75-1.9,1.18-6.26,3.94-15.29,10.33-16.83,15.26-2.39,7.67-3.42,9-3.42,9L501.88,789s3.23.62,7,1.4l.08,1,.39,4.72.09,1c-1.59-.07-3.67.48-4.9,3.44-2.19,5.23-7,16.58-7,16.58s-10.77,10-4.24,19.28a6.68,6.68,0,0,0,1,1.16c4.69,4.26,14.69,1.53,21.8-1.25a21.26,21.26,0,0,0,9-7.26,3.42,3.42,0,0,1,2.4-1.33,9.8,9.8,0,0,0,4.47-1.95,6,6,0,0,0,2.46-5,.761.761,0,0,1,0-.15l-.63-14.23s-.77-9.94-3.22-9.3l-.63.15-.17-1h0l-.33-1.93-.17-1h1.36s.34-11.24,4.45-20.08S541.9,693,541.9,693s50.87.83,52.57-3.94h0c1,0,2.09,0,3.13-.07,1.71,4.77,49.72,5,49.72,5s2.73,71.49,6.83,80.34a40.815,40.815,0,0,1,2.15,5.86h0a65.417,65.417,0,0,1,2.31,14.21h1.36l-.18,1-.33,1.92-.17,1-.65-.15c-2.43-.63-3.2,9.31-3.2,9.31l-.65,14.32a5.81,5.81,0,0,0,2.38,5,10,10,0,0,0,4.55,2,3.34,3.34,0,0,1,2.4,1.32,21.32,21.32,0,0,0,9,7.26c7.68,3,18.72,5.93,22.82.1C702.52,828.18,691.75,818.22,691.75,818.22ZM562.45,639.88ZM642.8,599s1.29,4.85,3.59,7.4,1.16,18.39,1.16,18.39a14.206,14.206,0,0,0-2.68.43C643.1,614.69,641.47,603,642.8,599Z" transform="translate(-95.23 -30.18)"/>
    <path id="Path_42" data-name="Path 42" class="cls-10" d="M436.96,768.43l-20.11,2-.56-6.73-.39-4.63-.55-6.77,19,1,1.51,8.69.32,1.89h.01Z"/>
    <path id="Path_43" data-name="Path 43" class="cls-10" d="M583.41,753.31l-.55,6.76-.38,4.63-.57,6.73-20.12-2,.8-4.55.31-1.88,1.51-8.69Z"/>
    <path id="Path_44" data-name="Path 44" class="cls-11" d="M657.33,686.1l-59.8,2.81q-4.08.2-8.16,0l-57.13-2.8V640.85H657.33Z" transform="translate(-95.23 -30.18)"/>
    <path id="Path_45" data-name="Path 45" class="cls-12" d="M657.33,686.1l-59.8,2.81q-4.08.2-8.16,0l-57.13-2.8V640.85H657.33Z" transform="translate(-95.23 -30.18)"/>
    <path id="Path_46" data-name="Path 46" class="cls-13" d="M580.75,518.91s-19.92,6.69-27.42,12.19c-1.56,1.14-3,2.08-4.26,2.85A24.4,24.4,0,0,0,539,546.23c-.05.14-.1.26-.15.37-1,2.25-5.75,17.5-5.75,17.5s-3.5,8.5-4,14,28.5,20.25,28.5,20.25-14,30.5-7.75,38.25,97.5,11.5,95.5,0-5.5-30.5-3.75-35.75l31-22.5s-1.25-31.5-11-39.75-22-11.25-22-11.25l-19.41-5s-6.84,17-14.34,19.25S581.92,533.46,580.75,518.91Z" transform="translate(-95.23 -30.18)"/>
    <path id="Path_47" data-name="Path 47" class="cls-12" d="M608.73,547.54s-8.46,7.06-12.9,0c0,0-4,11.94,0,15.94l-.15.81-.71,3.56-9.26,77L593.33,658l13.87-17.4-1.12-72-.5-4.13-.12-1h2.37S614.12,552.6,608.73,547.54Z" transform="translate(-95.23 -30.18)"/>
    <path id="Path_48" data-name="Path 48" class="cls-12" d="M610.73,547.54s-8.46,7.06-12.9,0c0,0-4,11.94,0,15.94l-.15.81-.71,3.56-9.26,77L595.33,658l13.87-17.4-1.12-72-.5-4.13-.12-1h2.37S616.12,552.6,610.73,547.54Z" transform="translate(-95.23 -30.18)"/>
    <path id="Path_49" data-name="Path 49" class="cls-14" d="M512.97,609.43,499.1,626.8l-7.64-13.08,9.27-77.04.71-3.56.16-.82,1.25-3.24,8.38,3.24.12,1,.5,4.13Z"/>
    <path id="Path_50" data-name="Path 50" class="cls-12" d="M531.09,792.16a67.927,67.927,0,0,1-12.85-1.31c-2.09-.52-4.71-1.1-7.1-1.61l-.56-6.77,19,1Z" transform="translate(-95.23 -30.18)"/>
    <path id="Path_51" data-name="Path 51" class="cls-11" d="M594.48,689c-1.66,4.67-51.24,3.85-51.24,3.85s-2.66,70-6.66,78.67-4.34,19.66-4.34,19.66-8.66,0-14-1.33-14-3-14-3l2.34-118.75s1-1.25,3.33-8.76c1.5-4.83,10.3-11.09,16.39-15,3.4-2.14,5.94-3.54,5.94-3.54l29.58,1.2,18.26.74S596.15,684.33,594.48,689Z" transform="translate(-95.23 -30.18)"/>
    <path id="Path_52" data-name="Path 52" class="cls-12" d="M532.2,798.6l-20.12,2-.57-6.73a6,6,0,0,1,2.19.48c3.67,2.64,14.16.54,17.71-.3h0Z" transform="translate(-95.23 -30.18)"/>
    <path id="Path_53" data-name="Path 53" class="cls-14" d="M536,818.05a5.87,5.87,0,0,1-2.41,4.89,9.55,9.55,0,0,1-4.35,1.91,3.25,3.25,0,0,0-2.33,1.3,20.87,20.87,0,0,1-8.8,7.11c-6.93,2.72-16.68,5.39-21.25,1.22a6.318,6.318,0,0,1-1-1.13c-6.37-9.12,4.13-18.88,4.13-18.88s4.74-11.12,6.87-16.24a5,5,0,0,1,6.87-2.88c4,2.88,16.13.12,18.5-.49s3.13,9.11,3.13,9.11L536,817.9a.755.755,0,0,0,0,.15Z" transform="translate(-95.23 -30.18)"/>
    <path id="Path_54" data-name="Path 54" class="cls-12" d="M678.65,783.48l-.56,6.76c-2.39.51-5,1.09-7.11,1.61a68.1,68.1,0,0,1-12.84,1.32l1.51-8.69Z" transform="translate(-95.23 -30.18)"/>
    <path id="Path_55" data-name="Path 55" class="cls-11" d="M685,787.85s-8.66,1.67-14,3-14,1.33-14,1.33-.33-11-4.33-19.66S646,693.85,646,693.85s-46.78-.27-48.45-4.94,20.39-45,20.39-45l13.45-.7L657,641.85a120.6,120.6,0,0,1,10.24,6.39c5.24,3.67,10.93,8.33,12.1,12.1,2.33,7.51,3.33,8.76,3.33,8.76Z" transform="translate(-95.23 -30.18)"/>
    <path id="Path_56" data-name="Path 56" class="cls-12" d="M677.71,794.87l-.56,6.73-20.13-2,.8-4.55c3.55.85,14,2.94,17.7.3a6,6,0,0,1,2.19-.48Z" transform="translate(-95.23 -30.18)"/>
    <path id="Path_57" data-name="Path 57" class="cls-14" d="M675.52,796.35a5,5,0,0,1,6.88,2.88c2.12,5.12,6.87,16.25,6.87,16.25s10.5,9.75,4.13,18.87c-4,5.72-14.76,2.85-22.24-.09a20.74,20.74,0,0,1-8.8-7.11,3.26,3.26,0,0,0-2.34-1.3,9.811,9.811,0,0,1-4.44-2,5.72,5.72,0,0,1-2.31-4.88l.63-14s.75-9.73,3.12-9.12S671.52,799.23,675.52,796.35Z" transform="translate(-95.23 -30.18)"/>
    <path id="Path_58" data-name="Path 58" class="cls-15" d="M623.83,527.35l-20.19,21.4-.56.6-.73-.43c-4.22-2.5-25.33-15.24-23.52-19.07,1-2.18,1.59-6.72,1.9-10.63,0-.47.06-.93.1-1.38.2-3.09.25-5.49.25-5.49s38-6.5,36.5,0c-.61,2.63.3,5.59,1.59,8.18.38.75.8,1.46,1.21,2.13A33,33,0,0,0,623.83,527.35Z" transform="translate(-95.23 -30.18)"/>
    <path id="Path_59" data-name="Path 59" class="cls-12" d="M619.17,520.53a29.65,29.65,0,0,1-38.34-2.69c.2-3.09.25-5.49.25-5.49s38-6.5,36.5,0C617,515,617.88,517.94,619.17,520.53Z" transform="translate(-95.23 -30.18)"/>
    <path id="Path_60" data-name="Path 60" class="cls-15" d="M631.24,495.64A29.67,29.67,0,0,1,572,498.46q-.12-1.4-.12-2.82a29.668,29.668,0,1,1,59.335,0Z" transform="translate(-95.23 -30.18)"/>
    <path id="Path_61" data-name="Path 61" class="cls-12" d="M630.87,490.9a7.1,7.1,0,0,1-5.58,1.51c-4.58-1-6.15-8-10.83-8.48s-7.79,6-12.53,5.87c-2-.05-3.8-1.36-5.64-2.27-3.22-1.59-8.52-2.56-12-1.36-5.23,1.79-7,6.63-10.34,10.48a15.254,15.254,0,0,1-1.87,1.81q-.12-1.4-.12-2.82a29.67,29.67,0,0,1,59-4.74Z" transform="translate(-95.23 -30.18)"/>
    <path id="Path_62" data-name="Path 62" class="cls-10" d="M596.29,486.54c1.84.9,3.6,2.22,5.64,2.27,4.73.12,7.82-6.39,12.52-5.88s6.25,7.45,10.85,8.48c3.09.7,6-1.61,8.31-3.76a13.231,13.231,0,0,0,3.57-4.39c1-2.48.48-5.34-.45-7.86s-2.24-4.94-2.7-7.59c-.56-3.18.09-6.66-1.42-9.52a8.43,8.43,0,0,0-5.94-4.1,14,14,0,0,0-7.33.83,10.37,10.37,0,0,1-3.61,1,7.64,7.64,0,0,1-2.65-.65,39.131,39.131,0,0,1-8.18-4.41,38.356,38.356,0,0,0-5.83-3.84,7.86,7.86,0,0,0-6.74-.27c-3.6,1.84-4.29,7-7.64,9.23-2.31,1.56-5.32,1.4-8.1,1.51s-6,.78-7.32,3.21c-1.18,2.09-.59,4.66-.44,7.05a18.1,18.1,0,0,1-1.11,7.4c-1.55,4.14-4.7,8.22-3.58,12.5.73,2.81,3.25,5.14,3.1,8a15.247,15.247,0,0,0-.19,2.23,1.65,1.65,0,0,0,1.31,1.6,2,2,0,0,0,1.12-.36,16.72,16.72,0,0,0,4.41-3.57c3.38-3.86,5.13-8.69,10.36-10.48C587.78,484,593.07,484.94,596.29,486.54Z" transform="translate(-95.23 -30.18)"/>
    <path id="Path_63" data-name="Path 63" class="cls-15" d="M630.7,661.1l-5.4,1.47L612.83,666a30.129,30.129,0,0,1-9.59,4.77c-7.63,1.93-12.56-2.27-16.66-8.77-1.65-2.6-.82-4.68,1.34-6.31,5.2-3.93,18.06-5.21,22-4.69a16.46,16.46,0,0,0,7.59-1.18,29.4,29.4,0,0,0,4.91-2.32Z" transform="translate(-95.23 -30.18)"/>
    <path id="Path_64" data-name="Path 64" class="cls-12" d="M630.7,661.1l-5.4,1.47c-1.55-4.67-4.1-10.53-7.75-12.78a29.4,29.4,0,0,0,4.91-2.32Z" transform="translate(-95.23 -30.18)"/>
    <path id="Path_65" data-name="Path 65" class="cls-12" d="M667.22,648.24c-2.24,1.81-4.14,3.46-4.14,3.46s-26,8.15-31,18.4c0,0-4-20-12.5-20.25,0,0,9.15-3.59,11.79-6.66L657,641.85A118.589,118.589,0,0,1,667.22,648.24Z" transform="translate(-95.23 -30.18)"/>
    <path id="Path_66" data-name="Path 66" class="cls-13" d="M666.83,569.85l5.75,8.5,1.75,26.5s.5,25.5,0,26.5l.5-1s-1,10-4,11.75-9.75,7.6-9.75,7.6-26,8.15-31,18.4c0,0-4-20-12.5-20.25,0,0,12.75-5,12.5-8.25,0,0,9.75-8.75,10.5-11s5.62-2.5,5.62-2.5,1.13-15.5-1.12-18-3.5-7.25-3.5-7.25Z" transform="translate(-95.23 -30.18)"/>
    <path id="Path_67" data-name="Path 67" class="cls-12" d="M603.24,670.74c-7.63,1.93-12.56-2.27-16.66-8.77-1.65-2.6-.82-4.68,1.34-6.31l.78.31S602.45,661.93,603.24,670.74Z" transform="translate(-95.23 -30.18)"/>
    <path id="Path_68" data-name="Path 68" class="cls-15" d="M600.08,678.73c-9,12.5-25.75-4.88-27-8.38-.45-1.27-2.16-2.4-4.13-3.31a44.577,44.577,0,0,0-7.75-2.57l14.88-12.12,2.85,1.14L587.7,657S609.08,666.23,600.08,678.73Z" transform="translate(-95.23 -30.18)"/>
    <path id="Path_69" data-name="Path 69" class="cls-12" d="M578.93,653.49c-8.2,3.9-9.95,9.51-10,13.55a44.577,44.577,0,0,0-7.75-2.57l14.88-12.12Z" transform="translate(-95.23 -30.18)"/>
    <path id="Path_70" data-name="Path 70" class="cls-12" d="M565.83,675.1s-24-19-35.5-27.25a28.119,28.119,0,0,1-4-3.46c3.4-2.14,5.94-3.54,5.94-3.54l29.58,1.2c.79,1.37,1.26,2.3,1.26,2.3l16,10.5C559.83,661.1,565.83,675.1,565.83,675.1Z" transform="translate(-95.23 -30.18)"/>
    <path id="Path_71" data-name="Path 71" class="cls-13" d="M533.83,575.35l-4.75,2.75s-5.75,18.25-4.25,30.25c0,0-4.5,17.25-2.75,20,0,0-2.25,9.25,9.25,17.5s35.5,27.25,35.5,27.25-6-14,13.25-20.25l-16-10.5s-5.37-10.66-10.5-13c0,0-4-4-1.5-6.75s4.5-5.75,4.5-8.5,1-15.75,1-15.75l3-14Z" transform="translate(-95.23 -30.18)"/>
    <path id="Path_72" data-name="Path 72" class="cls-12" d="M606.58,563.47h-9.75a1.291,1.291,0,0,1-.16-.18l.16-.82,1.25-3.24,8.38,3.24Z" transform="translate(-95.23 -30.18)"/>
    <path id="Path_73" data-name="Path 73" class="cls-14" d="M609.73,546.54s-8.46,7.06-12.9,0c0,0-4,11.94,0,15.94h12S615.12,551.6,609.73,546.54Z" transform="translate(-95.23 -30.18)"/>
    <path id="Path_74" data-name="Path 74" class="cls-12" d="M621.17,523.35l12.6,3.25s-11.94,31-14.57,31l-15.12-7.25Z" transform="translate(-95.23 -30.18)"/>
    <path id="Path_75" data-name="Path 75" class="cls-12" d="M623.83,527.35l-20.19,21.4-.56.6-.73-.43L620,522l.43.71a33.011,33.011,0,0,0,3.4,4.64Z" transform="translate(-95.23 -30.18)"/>
    <path id="Path_76" data-name="Path 76" class="cls-13" d="M620.17,522.35l12.6,3.25s-11.94,31-14.57,31l-15.12-7.25Z" transform="translate(-95.23 -30.18)"/>
    <path id="Path_77" data-name="Path 77" class="cls-12" d="M579.75,519.91l-10.92,3.44s10.75,32.5,13.75,34.25l19.5-7.25Z" transform="translate(-95.23 -30.18)"/>
    <path id="Path_78" data-name="Path 78" class="cls-12" d="M603.64,548.75l-.56.6s-26.25-15.25-24.25-19.5c1-2.18,1.59-6.72,1.9-10.63v-.61Z" transform="translate(-95.23 -30.18)"/>
    <g id="Group_2" data-name="Group 2" class="cls-16" transform="translate(-373.497 95.211)">
      <path id="Icon_simple-graphcool" data-name="Icon simple-graphcool" class="cls-17" d="M18.711,6.837a2.494,2.494,0,0,0-2.381.3L12.149,9.6a1.586,1.586,0,0,0-2.091.052A1.743,1.743,0,0,0,9.73,11.8a1.6,1.6,0,0,0,1.972.721,1.707,1.707,0,0,0,1.038-1.886l4.17-2.458.027-.016c.274-.18.91-.449,1.207-.275.214.126.336.546.346,1.164h0V14.48a1.434,1.434,0,0,1-.683,1.23l-6,3.6a1.326,1.326,0,0,1-1.366,0l-6-3.6a1.434,1.434,0,0,1-.683-1.23V7.289A1.432,1.432,0,0,1,4.445,6.06L9.871,2.808a1.587,1.587,0,0,0,2.058.345,1.725,1.725,0,0,0,.7-2.038,1.625,1.625,0,0,0-1.8-1.092A1.675,1.675,0,0,0,9.47,1.663l-5.6,3.358A2.641,2.641,0,0,0,2.607,7.289v7.189a2.641,2.641,0,0,0,1.261,2.269l5.994,3.6a2.446,2.446,0,0,0,2.521,0l6-3.6a2.646,2.646,0,0,0,1.261-2.267V9.253h0a2.52,2.52,0,0,0-.932-2.416Z" transform="translate(892.393 437.574)"/>
      <circle id="Ellipse_7" data-name="Ellipse 7" class="cls-2" cx="2.5" cy="2.5" r="2.5" transform="translate(900.623 436.789)"/>
      <circle id="Ellipse_8" data-name="Ellipse 8" class="cls-2" cx="2.5" cy="2.5" r="2.5" transform="translate(900.623 445.789)"/>
    </g>
    <path id="Path_79" data-name="Path 79" class="cls-13" d="M580.75,518.91l-10.92,3.44s10.75,32.5,13.75,34.25l19.5-7.25Z" transform="translate(-95.23 -30.18)"/>
    <path id="Path_80" data-name="Path 80" class="cls-12" d="M554.74,572s6.58,1.17,6.46,8,2.71-8.83,2.71-8.83Z" transform="translate(-95.23 -30.18)"/>
    <path id="Path_81" data-name="Path 81" class="cls-12" d="M556.24,593s-1.83,10.33,0,19.67,1.67,12.5,3.09,13S556.24,593,556.24,593Z" transform="translate(-95.23 -30.18)"/>
    <path id="Path_82" data-name="Path 82" class="cls-12" d="M640.24,592a3.62,3.62,0,0,0-3,4.67C638.08,600.85,640.24,592,640.24,592Z" transform="translate(-95.23 -30.18)"/>
    <path id="Path_83" data-name="Path 83" class="cls-12" d="M525.91,627s21.43-1.83,25,2S525.91,627,525.91,627Z" transform="translate(-95.23 -30.18)"/>
    <path id="Path_84" data-name="Path 84" class="cls-12" d="M650.24,628.45s15.67-1.93,19.34.74" transform="translate(-95.23 -30.18)"/>
    <path id="Path_85" data-name="Path 85" class="cls-12" d="M656.58,631s9.33.33,11.5,1.5" transform="translate(-95.23 -30.18)"/>
    <path id="Path_86" data-name="Path 86" class="cls-12" d="M658.41,634.35s8.5-.33,9.67,1" transform="translate(-95.23 -30.18)"/>
    <path id="Path_87" data-name="Path 87" class="cls-12" d="M538.54,681.35s7.28,3.79,6.54,7.66S538.54,681.35,538.54,681.35Z" transform="translate(-95.23 -30.18)"/>
    <path id="Path_88" data-name="Path 88" class="cls-12" d="M532.24,683.19s11.11,14.41,9.6,19.16S532.24,683.19,532.24,683.19Z" transform="translate(-95.23 -30.18)"/>
    <path id="Path_89" data-name="Path 89" class="cls-12" d="M651.33,685.58s-5.5,4.53-5.35,8.27" transform="translate(-95.23 -30.18)"/>
    <path id="Path_90" data-name="Path 90" class="cls-12" d="M524.33,774.85s0,4.25,7.87,10.5" transform="translate(-95.23 -30.18)"/>
    <path id="Path_91" data-name="Path 91" class="cls-12" d="M663.24,764.85s-.84,8.84-8.5,13.42" transform="translate(-95.23 -30.18)"/>
    <g id="Group_1" data-name="Group 1" class="cls-18">
      <path id="Path_92" data-name="Path 92" d="M568.83,464.81c0-.69-.12-1.4-.18-2.1a20.169,20.169,0,0,0,.14,4.58A18.642,18.642,0,0,0,568.83,464.81Z" transform="translate(-95.23 -30.18)"/>
      <path id="Path_93" data-name="Path 93" d="M567.24,492.75c.15-2.9-2.37-5.23-3.1-8a2.7,2.7,0,0,1-.08-.41,7.71,7.71,0,0,0,.08,3.41c.59,2.29,2.37,4.25,2.93,6.47C567.12,493.7,567.22,493.23,567.24,492.75Z" transform="translate(-95.23 -30.18)"/>
      <path id="Path_94" data-name="Path 94" d="M637.18,480.26a13.33,13.33,0,0,1-3.57,4.39c-2.33,2.15-5.22,4.46-8.31,3.76-4.59-1-6.17-8-10.85-8.48s-7.79,6-12.52,5.87c-2-.05-3.8-1.36-5.64-2.27-3.22-1.59-8.51-2.56-12-1.36-5.23,1.79-7,6.63-10.36,10.48a16.871,16.871,0,0,1-4.4,3.58,2.12,2.12,0,0,1-1.13.35,1.39,1.39,0,0,1-1.12-.9v.07a15.393,15.393,0,0,0-.19,2.24,1.65,1.65,0,0,0,1.31,1.59,2.12,2.12,0,0,0,1.13-.35,16.868,16.868,0,0,0,4.4-3.58c3.38-3.85,5.13-8.69,10.36-10.48,3.53-1.2,8.82-.23,12,1.36,1.84.91,3.6,2.22,5.64,2.27,4.73.12,7.82-6.39,12.52-5.87s6.26,7.44,10.85,8.48c3.09.7,6-1.61,8.31-3.76a13.33,13.33,0,0,0,3.57-4.39,8.44,8.44,0,0,0,.43-4.54,7.067,7.067,0,0,1-.43,1.54Z" transform="translate(-95.23 -30.18)"/>
    </g>
    <path id="Path_95" data-name="Path 95" class="cls-12" d="M500,814.48s8.17-2.52,11.56,2.26" transform="translate(-95.23 -30.18)"/>
    <path id="Path_96" data-name="Path 96" class="cls-12" d="M689.27,815.48s-13.53-.79-13,2.87" transform="translate(-95.23 -30.18)"/>
    <ellipse id="Ellipse_3" data-name="Ellipse 3" class="cls-1" cx="26.93" cy="4.55" rx="26.93" ry="4.55" transform="translate(837.24 768.79)"/>
    <ellipse id="Ellipse_4" data-name="Ellipse 4" class="cls-1" cx="26.93" cy="4.55" rx="26.93" ry="4.55" transform="translate(64.16 806.13)"/>
    <ellipse id="Ellipse_5" data-name="Ellipse 5" class="cls-1" cx="26.93" cy="4.55" rx="26.93" ry="4.55" transform="translate(168.33 830.54)"/>
    <ellipse id="Ellipse_6" data-name="Ellipse 6" class="cls-19" cx="40.21" cy="6.8" rx="40.21" ry="6.8" transform="translate(765.01 815.3)"/>
    <path id="Path_97" data-name="Path 97" class="cls-2" d="M917.08,841.16a11.711,11.711,0,0,0,3.83-5.79c.5-2.29-.48-5-2.68-5.89-2.46-.94-5.09.77-7.08,2.49s-4.28,3.69-6.89,3.32a10.48,10.48,0,0,0,3.25-9.81,4.13,4.13,0,0,0-.91-2c-1.36-1.46-3.84-.84-5.47.32-5.2,3.65-6.65,10.72-6.68,17.07-.53-2.29-.08-4.68-.1-7s-.65-5-2.64-6.23a7.94,7.94,0,0,0-4-.94c-2.34-.09-4.94.15-6.54,1.86-2,2.12-1.46,5.68.26,8s4.35,3.81,6.77,5.42a15,15,0,0,1,4.83,4.61,4.158,4.158,0,0,1,.36.83H908a41.058,41.058,0,0,0,9.08-6.26Z" transform="translate(-95.23 -30.18)"/>
    <path id="Path_98" data-name="Path 98" class="cls-2" d="M291.88,753.45s5.5,7.19-2.53,18-14.65,20-12,26.77c0,0,12.12-20.15,22-20.43S302.73,765.57,291.88,753.45Z" transform="translate(-95.23 -30.18)"/>
    <path id="Path_99" data-name="Path 99" class="cls-12" d="M291.88,753.45a8.833,8.833,0,0,1,1.12,2.26c9.62,11.3,14.75,21.85,5.5,22.11-8.61.25-18.94,15.65-21.42,19.54.08.3.18.59.29.89,0,0,12.12-20.15,22-20.43S302.73,765.57,291.88,753.45Z" transform="translate(-95.23 -30.18)"/>
    <path id="Path_100" data-name="Path 100" class="cls-6" d="M302.09,762.61c0,2.53-.28,4.58-.63,4.58s-.63-2.05-.63-4.58.35-1.34.7-1.34S302.09,760.08,302.09,762.61Z" transform="translate(-95.23 -30.18)"/>
    <path id="Path_101" data-name="Path 101" class="cls-6" d="M305.6,765.63c-2.22,1.21-4.16,1.94-4.32,1.63s1.49-1.54,3.71-2.75,1.35-.33,1.51,0S307.82,764.42,305.6,765.63Z" transform="translate(-95.23 -30.18)"/>
    <path id="Path_102" data-name="Path 102" class="cls-2" d="M262.87,753.45s-5.5,7.19,2.53,18,14.65,20,12,26.77c0,0-12.11-20.15-22-20.43S252,765.57,262.87,753.45Z" transform="translate(-95.23 -30.18)"/>
    <path id="Path_103" data-name="Path 103" class="cls-12" d="M262.87,753.45a9,9,0,0,0-1.13,2.26c-9.62,11.3-14.74,21.85-5.5,22.11,8.62.25,18.95,15.65,21.43,19.54a7.766,7.766,0,0,1-.3.89s-12.11-20.15-22-20.43S252,765.57,262.87,753.45Z" transform="translate(-95.23 -30.18)"/>
    <path id="Path_104" data-name="Path 104" class="cls-6" d="M252.65,762.61c0,2.53.29,4.58.64,4.58s.63-2.05.63-4.58-.35-1.34-.7-1.34S252.65,760.08,252.65,762.61Z" transform="translate(-95.23 -30.18)"/>
    <path id="Path_105" data-name="Path 105" class="cls-6" d="M249.15,765.63c2.22,1.21,4.15,1.94,4.32,1.63s-1.5-1.54-3.72-2.75-1.34-.33-1.51,0S246.93,764.42,249.15,765.63Z" transform="translate(-95.23 -30.18)"/>
    <path id="Path_106" data-name="Path 106" class="cls-20" d="M254.4,797.31s15.36-.48,20-3.77,23.63-7.24,24.77-1.95,23.09,26.29,5.75,26.43-40.3-2.7-44.92-5.51S254.4,797.31,254.4,797.31Z" transform="translate(-95.23 -30.18)"/>
    <path id="Path_107" data-name="Path 107" class="cls-21" d="M305.22,816.18c-17.34.14-40.3-2.7-44.92-5.51-3.51-2.15-4.92-9.84-5.39-13.38h-.51s1,12.38,5.59,15.2,27.58,5.65,44.92,5.51c5,0,6.73-1.82,6.64-4.46C310.85,815.16,308.94,816.15,305.22,816.18Z" transform="translate(-95.23 -30.18)"/>
    <text id="Welcome_to" data-name="Welcome to" class="cls-22" transform="translate(405.996 254.998)"><tspan x="0" y="0">Welcome to</tspan></text>
    <text id="Bloodcells" class="cls-23" transform="translate(402.996 250.998)"><tspan x="0" y="42">Bloodcells</tspan></text>
  </g>
</svg>
